# xmcd
#
# Track frame offsets: 
#        150
#        14448
#        49746
#        79538
#        125449
#
# Disc length: 2266 seconds
#
# Revision: 1
# Processed by: cddbd v1.5.2PL0 Copyright (c) Steve Scherf et al.
# Submitted via: ExactAudioCopy v0.99pb5
#
DISCID=3408d805
DTITLE=C-Sixty Four - On A Good Thing
DYEAR=2005
DGENRE=Dance
TTITLE0=On A Good Thing (Radio Edit)
TTITLE1=On A Good Thing (Original Mix)
TTITLE2=On A Good Thing (Grand Remix)
TTITLE3=On A Good Thing (Full Intention Club Mix)
TTITLE4=DATA
EXTD=
EXTT0=
EXTT1=
EXTT2=
EXTT3=
EXTT4=
PLAYORDER=
